<svg xmlns="http://www.w3.org/2000/svg" fill="#fc6b03" viewBox="0 0 24 24">
  <path d="M 20.727 0.627 L 2.636 18.179 L 2.636 23.284 L 21.091 5.284 Z" />
  <path d="M 23.636 5.194 L 20.727 8.149 L 20.818 12.269 L 13.545 19.433 L 13.455 13.701 L 10.364 16.478 L 10.545 23.821 L 13.364 23.821 L 23.727 13.612 Z" />
  <path d="M 13.000 0.000 L 10.091 0.000 L 0.273 9.672 L 0.273 18.179 L 2.818 15.493 L 2.636 11.552 L 10.000 4.299 L 10.000 10.119 L 13.091 7.343 Z" />
  <path d="M 23.909 16.478 L 23.727 16.478 L 23.364 16.836 L 23.273 16.836 L 22.182 17.910 L 22.091 17.910 L 21.091 18.896 L 21.000 18.896 L 20.909 19.075 L 20.909 19.881 L 21.000 19.970 L 21.000 23.731 L 21.182 23.821 L 23.909 20.866 Z" />
  <path d="M 2.455 0.537 L 2.273 0.537 L 1.818 0.985 L 1.727 0.985 L 1.727 1.075 L 1.636 1.164 L 1.545 1.164 L 0.545 2.149 L 0.455 2.149 L 0.273 2.328 L 0.273 2.507 L 0.182 2.597 L 0.182 7.075 L 0.273 7.164 L 0.273 7.254 L 0.364 7.254 L 0.455 7.164 L 0.455 7.075 L 1.182 6.358 L 1.182 6.269 L 2.182 5.284 L 2.182 5.194 L 2.545 4.836 L 2.545 1.522 L 2.455 1.433 Z" />
</svg>
